<?xml version="1.0" standalone="no"?>
<!DOCTYPE svg PUBLIC "-//W3C//DTD SVG 20010904//EN"
 "http://www.w3.org/TR/2001/REC-SVG-20010904/DTD/svg10.dtd">
<svg version="1.0" xmlns="http://www.w3.org/2000/svg"
 width="297.000000pt" height="236.000000pt" viewBox="0 0 297.000000 236.000000"
 preserveAspectRatio="xMidYMid meet">

<g transform="translate(0.000000,236.000000) scale(0.100000,-0.100000)"
fill="#000000" stroke="none">
<path d="M275 2347 c-123 -41 -222 -155 -255 -296 -8 -33 -11 -87 -8 -140 9
-146 75 -283 202 -418 l58 -63 -7 -62 c-4 -35 -15 -88 -26 -117 -71 -193 -99
-388 -106 -721 l-6 -265 46 -50 c91 -101 179 -126 532 -150 127 -8 322 -23
435 -32 259 -21 808 -24 960 -5 324 40 575 119 699 220 l44 36 -6 250 c-7 314
-38 529 -106 750 -17 54 -31 107 -31 118 0 11 26 48 58 82 196 210 255 460
155 660 -35 69 -103 138 -170 172 -50 25 -69 29 -138 29 -71 0 -88 -4 -145
-33 -135 -69 -218 -154 -266 -270 -13 -31 -25 -56 -29 -55 -3 2 -40 20 -83 42
-100 50 -225 94 -337 117 -130 27 -384 26 -515 -3 -121 -27 -239 -70 -344
-126 l-83 -44 -17 53 c-52 166 -244 322 -406 330 -37 2 -82 -2 -105 -9z m202
-122 c81 -41 155 -109 189 -176 13 -27 24 -51 24 -53 0 -3 -18 -15 -39 -26
l-40 -20 -15 48 c-41 121 -186 178 -305 120 l-46 -23 66 -6 c97 -10 153 -47
193 -126 25 -50 20 -75 -19 -102 -55 -38 -183 -177 -207 -226 l-22 -45 -34 48
c-19 26 -51 81 -70 122 -35 71 -36 80 -37 180 0 97 2 110 29 163 33 65 79 110
140 138 62 28 113 24 193 -16z m2209 6 c61 -28 107 -73 140 -138 27 -53 29
-66 29 -163 -1 -96 -3 -111 -32 -173 -18 -37 -51 -94 -74 -128 l-43 -60 -29
58 c-20 39 -61 90 -127 155 -94 94 -98 99 -91 130 10 44 28 77 60 111 38 42
75 58 150 66 l66 6 -46 23 c-125 61 -276 -5 -310 -137 l-13 -50 -35 21 c-54
32 -54 32 -27 85 34 69 107 137 189 178 80 40 131 44 193 16z m-1114 -252 c15
-10 37 -19 49 -19 30 0 89 -30 89 -46 0 -7 -16 -16 -37 -19 -58 -10 -60 -12
-28 -25 32 -12 65 -38 65 -51 0 -4 -17 -18 -39 -30 -28 -16 -37 -26 -34 -40 5
-18 1 -18 -55 -13 -50 6 -70 3 -112 -15 -33 -14 -56 -19 -66 -13 -13 7 -11 13
15 35 36 30 38 37 10 37 -11 0 -18 4 -15 9 8 12 125 43 142 37 17 -7 19 -26 2
-26 -7 -1 -26 -7 -43 -15 -30 -15 -29 -15 20 -10 40 5 55 12 78 38 l28 32 -33
7 c-40 9 -86 2 -155 -24 -56 -20 -83 -17 -62 8 6 8 29 19 50 26 42 12 50 24
22 31 -14 4 -14 5 3 6 38 2 50 27 31 66 -12 25 -13 35 -4 38 18 7 48 -2 79
-24z m-139 -84 c-26 -25 -48 -45 -49 -45 -2 0 -10 7 -18 16 -22 21 -3 58 26
51 10 -3 34 1 51 8 18 8 33 14 35 15 2 0 -18 -20 -45 -45z m-684 -369 c131
-31 220 -43 383 -52 l127 -7 11 -31 c6 -17 14 -62 17 -101 25 -319 -283 -580
-590 -500 -258 67 -417 329 -352 578 18 71 56 146 94 190 l30 33 87 -42 c52
-26 130 -53 193 -68z m1786 73 c36 -44 72 -118 90 -186 89 -340 -238 -667
-578 -578 -255 66 -417 330 -354 575 l12 45 171 12 c257 18 435 59 559 127 33
19 63 34 67 35 3 0 18 -13 33 -30z m-909 -161 c-17 -56 -18 -194 -2 -262 47
-199 211 -365 408 -411 126 -30 263 -13 381 46 89 46 197 156 241 249 l35 73
11 -29 c19 -49 38 -156 42 -234 l3 -75 -63 -42 c-35 -22 -103 -54 -150 -70
-78 -25 -101 -28 -217 -28 -154 1 -231 19 -383 91 -53 26 -128 59 -167 75 -62
24 -71 31 -76 59 -20 96 -174 147 -316 105 -66 -20 -117 -74 -111 -117 4 -21
0 -31 -11 -35 -9 -3 -78 -34 -153 -69 -159 -74 -251 -102 -364 -110 -195 -16
-354 56 -456 204 l-31 45 12 76 c7 41 17 86 23 100 9 25 11 24 40 -34 41 -80
155 -193 235 -234 321 -161 707 17 789 365 16 68 15 206 -2 262 l-6 22 147 0
147 0 -6 -22z"/>
<path d="M1566 1924 c-8 -22 -8 -24 8 -24 8 0 24 9 37 20 l24 19 -31 1 c-20 0
-34 -6 -38 -16z"/>
<path d="M530 1442 c-38 -20 -70 -72 -70 -112 0 -64 69 -130 135 -130 66 0
135 66 135 130 0 65 -67 130 -135 130 -17 0 -46 -8 -65 -18z"/>
<path d="M2300 1442 c-38 -20 -70 -72 -70 -112 0 -64 69 -130 135 -130 66 0
135 66 135 130 0 65 -67 130 -135 130 -17 0 -46 -8 -65 -18z"/>
</g>
</svg>
