<?xml version="1.0" standalone="no"?>
<!DOCTYPE svg PUBLIC "-//W3C//DTD SVG 20010904//EN"
 "http://www.w3.org/TR/2001/REC-SVG-20010904/DTD/svg10.dtd">
<svg version="1.0" xmlns="http://www.w3.org/2000/svg"
 width="240.000000pt" height="240.000000pt" viewBox="0 0 240.000000 240.000000"
 preserveAspectRatio="xMidYMid meet">

<g transform="translate(0.000000,240.000000) scale(0.100000,-0.100000)"
fill="#000000" stroke="none">
<path d="M1180 2151 c0 -5 -3 -16 -6 -25 -4 -9 -1 -16 6 -16 23 0 181 -79 253
-127 170 -112 342 -317 426 -506 35 -79 38 -83 60 -75 24 8 24 10 18 101 -7
101 -22 163 -57 247 -82 191 -272 349 -477 394 -78 17 -223 22 -223 7z"/>
<path d="M900 2063 c-14 -9 -46 -32 -72 -52 -47 -34 -48 -37 -48 -88 l0 -53
44 0 c114 0 281 -50 395 -119 242 -147 402 -399 427 -676 l7 -75 47 0 c42 0
52 4 79 36 18 19 43 54 57 76 l26 41 -21 91 c-94 403 -407 721 -806 817 -98
23 -104 23 -135 2z"/>
<path d="M631 1993 c-62 -70 -135 -212 -162 -318 -15 -59 -20 -112 -20 -200 0
-148 22 -242 86 -370 96 -191 261 -334 472 -406 95 -32 103 -33 253 -33 150 0
158 1 253 33 104 36 188 82 268 147 49 40 56 59 28 77 -12 7 -30 -2 -78 -41
-242 -194 -587 -219 -854 -61 -174 103 -298 270 -358 479 -17 60 -18 280 -1
350 20 82 104 248 157 309 44 51 45 54 29 72 -9 11 -18 19 -20 19 -1 0 -25
-25 -53 -57z"/>
<path d="M743 1764 c-61 -23 -127 -85 -153 -146 -28 -65 -24 -161 8 -224 30
-59 96 -112 162 -130 30 -8 71 -19 90 -24 139 -38 220 -206 161 -336 l-18 -41
42 -27 c40 -25 148 -52 165 -41 16 10 41 102 47 170 19 235 -144 450 -374 495
-75 15 -102 38 -85 75 14 30 40 32 127 10 183 -47 334 -186 395 -365 27 -77
38 -226 21 -285 -12 -46 -9 -49 65 -66 43 -10 59 -9 102 5 l51 17 7 66 c27
258 -87 531 -291 693 -72 57 -189 118 -275 144 -81 24 -196 29 -247 10z"/>
<path d="M803 1138 c-110 -28 -86 -198 28 -198 28 0 77 27 89 49 19 37 12 96
-15 124 -30 29 -58 36 -102 25z"/>
<path d="M2223 410 c-38 -15 -43 -41 -43 -219 l0 -171 30 0 30 0 0 90 0 90 76
0 75 0 -3 28 c-3 26 -5 27 -76 30 l-73 3 3 47 3 47 78 3 77 3 0 29 0 30 -77
-1 c-43 0 -88 -4 -100 -9z"/>
<path d="M56 388 c-13 -18 -16 -53 -16 -173 0 -145 1 -152 23 -173 20 -19 35
-22 115 -22 91 0 92 0 92 25 0 24 -2 25 -69 25 -99 0 -101 2 -101 71 l0 59 75
0 c73 0 75 1 75 25 0 24 -2 25 -76 25 l-75 0 3 53 3 52 83 3 c80 3 82 3 82 27
0 25 0 25 -99 25 -92 0 -101 -2 -115 -22z"/>
<path d="M340 390 c-16 -16 -20 -33 -20 -85 0 -92 23 -115 115 -115 l65 0 0
-54 c0 -64 -3 -66 -106 -66 -72 0 -74 -1 -74 -25 l0 -25 100 0 c130 0 140 8
140 115 0 97 -15 115 -97 115 -76 0 -85 7 -81 61 l3 44 83 3 c80 3 82 3 82 27
0 25 -1 25 -95 25 -82 0 -98 -3 -115 -20z"/>
<path d="M610 215 l0 -195 35 0 35 0 0 75 0 75 64 0 c49 0 69 5 90 21 24 19
26 26 26 103 0 113 -4 116 -143 116 l-107 0 0 -195z m188 78 l3 -63 -61 0 -60
0 0 65 0 66 58 -3 57 -3 3 -62z"/>
<path d="M910 215 l0 -195 30 0 30 0 0 80 0 80 36 0 c49 0 71 -14 79 -52 20
-100 24 -108 55 -108 17 0 30 5 30 13 0 20 -26 111 -38 133 -7 14 -7 24 4 39
9 12 14 45 14 95 0 105 -6 110 -138 110 l-102 0 0 -195z m175 80 l0 -60 -57
-3 -58 -3 0 66 0 66 58 -3 57 -3 0 -60z"/>
<path d="M1224 389 c-17 -19 -19 -38 -19 -176 0 -194 -1 -193 141 -193 93 0
94 0 94 25 0 24 -2 24 -82 27 l-83 3 -3 62 -3 63 71 0 c68 0 70 1 70 25 0 24
-2 25 -70 25 l-70 0 0 55 0 55 85 0 c84 0 85 0 85 25 0 25 0 25 -98 25 -88 0
-101 -2 -118 -21z"/>
<path d="M1506 391 c-25 -27 -32 -108 -13 -153 17 -39 31 -45 127 -50 l45 -3
3 -43 c5 -64 -7 -72 -104 -72 -83 0 -84 0 -84 -25 l0 -25 100 0 c94 0 103 2
125 25 45 44 30 189 -19 200 -12 3 -46 6 -76 7 l-55 3 -3 53 -3 52 80 0 c80 0
81 0 81 25 0 25 0 25 -93 25 -79 0 -97 -3 -111 -19z"/>
<path d="M1796 391 c-25 -27 -32 -108 -13 -153 17 -39 31 -45 127 -50 l45 -3
3 -43 c5 -64 -7 -72 -104 -72 -83 0 -84 0 -84 -25 l0 -25 100 0 c94 0 103 2
125 25 45 44 30 189 -19 200 -12 3 -46 6 -76 7 l-55 3 -3 53 -3 52 80 0 c80 0
81 0 81 25 0 25 0 25 -93 25 -79 0 -97 -3 -111 -19z"/>
<path d="M2070 215 l0 -195 30 0 30 0 0 195 0 195 -30 0 -30 0 0 -195z"/>
</g>
</svg>
